<?xml version="1.0" encoding="UTF-8"?>
<!DOCTYPE svg PUBLIC "-//W3C//DTD SVG 1.1//EN" "http://www.w3.org/Graphics/SVG/1.1/DTD/svg11.dtd">
<!-- Creator: CorelDRAW -->
<svg xmlns="http://www.w3.org/2000/svg" xml:space="preserve" width="21.1666mm" height="21.1666mm" version="1.1" style="shape-rendering:geometricPrecision; text-rendering:geometricPrecision; image-rendering:optimizeQuality; fill-rule:evenodd; clip-rule:evenodd"
viewBox="0 0 393.03 393.03"
 xmlns:xlink="http://www.w3.org/1999/xlink"
 xmlns:xodm="http://www.corel.com/coreldraw/odm/2003">
 <defs>
  <style type="text/css">
   <![CDATA[
    .fil2 {fill:none;fill-rule:nonzero}
    .fil1 {fill:white;fill-rule:nonzero}
    .fil0 {fill:url(#id1);fill-rule:nonzero}
   ]]>
  </style>
   <clipPath id="id0" style="clip-rule:nonzero">
    <path d="M137.56 255.47l122.82 0 0 -122.82 -122.82 0 0 122.82z"/>
   </clipPath>
  <radialGradient id="id1" gradientUnits="userSpaceOnUse" gradientTransform="matrix(8.84323E-17 -1.44421 1.44421 8.84323E-17 -91 500)" cx="204.37" cy="204.37" r="196.51" fx="204.37" fy="204.37">
   <stop offset="0" style="stop-opacity:1; stop-color:#960000"/>
   <stop offset="0.478431" style="stop-opacity:1; stop-color:red"/>
   <stop offset="1" style="stop-opacity:1; stop-color:red"/>
  </radialGradient>
 </defs>
 <g id="Capa_x0020_1">
  <metadata id="CorelCorpID_0Corel-Layer"/>
  <circle class="fil0" cx="196.51" cy="196.51" r="196.51"/>
  <g>
  </g>
  <g style="clip-path:url(#id0)">
   <g id="_1975108660032">
    <path class="fil1" d="M137.56 229.87l0 10.24c0,8.47 20.63,15.35 46.06,15.35 25.43,0 46.06,-6.89 46.06,-15.35l0 -10.24c-9.91,6.98 -28.02,10.24 -46.06,10.24 -18.04,0 -36.15,-3.26 -46.06,-10.24zm76.76 -66.52c25.43,0 46.06,-6.89 46.06,-15.35 0,-8.47 -20.63,-15.35 -46.06,-15.35 -25.43,0 -46.06,6.89 -46.06,15.35 0,8.47 20.63,15.35 46.06,15.35zm-76.76 41.36l0 12.38c0,8.47 20.63,15.35 46.06,15.35 25.43,0 46.06,-6.89 46.06,-15.35l0 -12.38c-9.91,8.16 -28.04,12.38 -46.06,12.38 -18.02,0 -36.15,-4.22 -46.06,-12.38zm99.79 2.64c13.75,-2.66 23.03,-7.6 23.03,-13.29l0 -10.24c-5.56,3.93 -13.75,6.62 -23.03,8.28l0 15.26zm-53.73 -36.32c-25.43,0 -46.06,8.59 -46.06,19.19 0,10.6 20.63,19.19 46.06,19.19 25.43,0 46.06,-8.59 46.06,-19.19 0,-10.6 -20.63,-19.19 -46.06,-19.19zm52.61 13.5c14.39,-2.59 24.16,-7.68 24.16,-13.5l0 -10.24c-8.52,6.02 -23.15,9.26 -38.55,10.03 7.08,3.43 12.28,8.03 14.39,13.72z"/>
   </g>
  </g>
  <polygon class="fil2" points="137.56,255.47 260.38,255.47 260.38,132.65 137.56,132.65 "/>
 </g>
</svg>
