<?xml version="1.0" encoding="UTF-8"?>
<!DOCTYPE svg PUBLIC "-//W3C//DTD SVG 1.1//EN" "http://www.w3.org/Graphics/SVG/1.1/DTD/svg11.dtd">
<!-- Creator: CorelDRAW -->
<svg xmlns="http://www.w3.org/2000/svg" xml:space="preserve" width="21.1666mm" height="21.1666mm" version="1.1" style="shape-rendering:geometricPrecision; text-rendering:geometricPrecision; image-rendering:optimizeQuality; fill-rule:evenodd; clip-rule:evenodd"
viewBox="0 0 718.81 718.81"
 xmlns:xlink="http://www.w3.org/1999/xlink"
 xmlns:xodm="http://www.corel.com/coreldraw/odm/2003">
 <defs>
  <style type="text/css">
   <![CDATA[
    .fil2 {fill:none;fill-rule:nonzero}
    .fil1 {fill:white;fill-rule:nonzero}
    .fil0 {fill:url(#id1);fill-rule:nonzero}
   ]]>
  </style>
   <clipPath id="id0" style="clip-rule:nonzero">
    <path d="M251.58 467.23l224.63 0 0 -224.63 -224.63 0 0 224.63z"/>
   </clipPath>
  <radialGradient id="id1" gradientUnits="userSpaceOnUse" gradientTransform="matrix(8.84323E-17 -1.44421 1.44421 8.84323E-17 -166 914)" cx="373.78" cy="373.78" r="359.41" fx="373.78" fy="373.78">
   <stop offset="0" style="stop-opacity:1; stop-color:#960000"/>
   <stop offset="0.478431" style="stop-opacity:1; stop-color:red"/>
   <stop offset="1" style="stop-opacity:1; stop-color:red"/>
  </radialGradient>
 </defs>
 <g id="Capa_x0020_1">
  <metadata id="CorelCorpID_0Corel-Layer"/>
  <circle class="fil0" cx="359.41" cy="359.41" r="359.41"/>
  <g>
  </g>
  <g style="clip-path:url(#id0)">
   <g id="_1975241522816">
    <path class="fil1" d="M465.68 298.76l-3.51 0 0 -21.06c0,-19.65 -43.52,-35.1 -98.28,-35.1 -54.75,0 -98.28,15.44 -98.28,35.1l0 21.06 -3.51 0c-5.81,0 -10.53,4.71 -10.53,10.53l0 35.1c0,5.81 4.72,10.53 10.53,10.53l3.51 0 0 70.2c0,7.75 6.29,14.04 14.04,14.04l0 14.04c0,7.75 6.29,14.04 14.04,14.04l14.04 0c7.75,0 14.04,-6.29 14.04,-14.04l0 -14.04 84.23 0 0 14.04c0,7.75 6.29,14.04 14.04,14.04l14.04 0c7.75,0 14.04,-6.29 14.04,-14.04l0 -14.04 2.81 0c7.02,0 11.23,-5.62 11.23,-11.23l0 -73 3.51 0c5.81,0 10.53,-4.72 10.53,-10.53l0 -35.1c0,-5.82 -4.72,-10.53 -10.53,-10.53zm-164.96 119.33c-7.75,0 -14.04,-6.29 -14.04,-14.04 0,-7.75 6.29,-14.04 14.04,-14.04 7.75,0 14.04,6.29 14.04,14.04 0,7.75 -6.29,14.04 -14.04,14.04zm7.02 -49.14c-7.75,0 -14.04,-6.29 -14.04,-14.04l0 -56.16c0,-7.75 6.29,-14.04 14.04,-14.04l112.32 0c7.75,0 14.04,6.29 14.04,14.04l0 56.16c0,7.75 -6.29,14.04 -14.04,14.04l-112.32 0zm119.33 49.14c-7.75,0 -14.04,-6.29 -14.04,-14.04 0,-7.75 6.29,-14.04 14.04,-14.04 7.75,0 14.04,6.29 14.04,14.04 0,7.75 -6.29,14.04 -14.04,14.04z"/>
   </g>
  </g>
  <polygon class="fil2" points="251.58,467.23 476.21,467.23 476.21,242.6 251.58,242.6 "/>
 </g>
</svg>
