<?xml version="1.0" encoding="UTF-8"?>
<!DOCTYPE svg PUBLIC "-//W3C//DTD SVG 1.1//EN" "http://www.w3.org/Graphics/SVG/1.1/DTD/svg11.dtd">
<!-- Creator: CorelDRAW -->
<svg xmlns="http://www.w3.org/2000/svg" xml:space="preserve" width="21.1666mm" height="21.1666mm" version="1.1" style="shape-rendering:geometricPrecision; text-rendering:geometricPrecision; image-rendering:optimizeQuality; fill-rule:evenodd; clip-rule:evenodd"
viewBox="0 0 651.01 651.01"
 xmlns:xlink="http://www.w3.org/1999/xlink"
 xmlns:xodm="http://www.corel.com/coreldraw/odm/2003">
 <defs>
  <style type="text/css">
   <![CDATA[
    .fil1 {fill:white;fill-rule:nonzero}
    .fil0 {fill:url(#id0);fill-rule:nonzero}
   ]]>
  </style>
  <radialGradient id="id0" gradientUnits="userSpaceOnUse" gradientTransform="matrix(8.84323E-17 -1.44421 1.44421 8.84323E-17 -150 827)" cx="338.53" cy="338.53" r="325.51" fx="338.53" fy="338.53">
   <stop offset="0" style="stop-opacity:1; stop-color:#960000"/>
   <stop offset="0.478431" style="stop-opacity:1; stop-color:red"/>
   <stop offset="1" style="stop-opacity:1; stop-color:red"/>
  </radialGradient>
 </defs>
 <g id="Capa_x0020_1">
  <metadata id="CorelCorpID_0Corel-Layer"/>
  <circle class="fil0" cx="325.51" cy="325.51" r="325.51"/>
  <path class="fil1" d="M375.41 270.98c10.32,1.85 18.78,7.42 25.4,16.69 5.82,8.21 9.79,18.54 11.91,30.99 1.85,11.39 1.72,22.78 -0.4,34.17 -3.18,18.81 -9.53,34.57 -19.05,47.29 -11.38,15.37 -25.66,23.05 -42.86,23.05 -4.24,0 -8.86,-1.32 -13.89,-3.97 -3.44,-2.12 -7.28,-3.18 -11.51,-3.18 -4.24,0 -8.06,1.06 -11.51,3.18 -5.03,2.65 -9.65,3.97 -13.89,3.97 -17.2,0 -31.48,-7.68 -42.86,-23.05 -9.53,-12.71 -15.87,-28.48 -19.05,-47.29 -2.12,-11.39 -2.25,-22.78 -0.4,-34.17 2.12,-12.45 6.08,-22.78 11.91,-30.99 6.62,-9.27 15.08,-14.83 25.4,-16.69 6.35,-1.06 15.08,-0.13 26.19,2.78 9.53,2.65 17.6,5.83 24.21,9.54 6.62,-3.71 14.69,-6.89 24.21,-9.54 11.12,-2.91 19.85,-3.84 26.2,-2.78zm-21.83 -16.29c-3.71,3.44 -8.6,5.96 -14.69,7.55 -4.24,1.32 -8.86,1.99 -13.89,1.99l-5.95 -0.4c-0.53,-3.71 -0.53,-7.94 0,-12.71 1.06,-9.53 4.1,-16.82 9.13,-21.85 3.7,-3.44 8.6,-5.96 14.69,-7.55 4.24,-1.32 8.86,-1.99 13.89,-1.99l5.95 0.4 0.4 5.96c0,5.03 -0.66,9.67 -1.98,13.91 -1.58,6.09 -4.09,11 -7.54,14.7z"/>
 </g>
</svg>
