<?xml version="1.0" encoding="UTF-8"?>
<!DOCTYPE svg PUBLIC "-//W3C//DTD SVG 1.1//EN" "http://www.w3.org/Graphics/SVG/1.1/DTD/svg11.dtd">
<!-- Creator: CorelDRAW -->
<svg xmlns="http://www.w3.org/2000/svg" xml:space="preserve" width="21.1666mm" height="21.1666mm" version="1.1" style="shape-rendering:geometricPrecision; text-rendering:geometricPrecision; image-rendering:optimizeQuality; fill-rule:evenodd; clip-rule:evenodd"
viewBox="0 0 10611.17 10611.17"
 xmlns:xlink="http://www.w3.org/1999/xlink"
 xmlns:xodm="http://www.corel.com/coreldraw/odm/2003">
 <defs>
  <style type="text/css">
   <![CDATA[
    .fil1 {fill:white;fill-rule:nonzero}
    .fil0 {fill:url(#id0);fill-rule:nonzero}
   ]]>
  </style>
  <radialGradient id="id0" gradientUnits="userSpaceOnUse" gradientTransform="matrix(8.84323E-17 -1.44421 1.44421 8.84323E-17 -2451 13487)" cx="5517.79" cy="5517.79" r="5305.59" fx="5517.79" fy="5517.79">
   <stop offset="0" style="stop-opacity:1; stop-color:#960000"/>
   <stop offset="0.478431" style="stop-opacity:1; stop-color:red"/>
   <stop offset="1" style="stop-opacity:1; stop-color:red"/>
  </radialGradient>
 </defs>
 <g id="Capa_x0020_1">
  <metadata id="CorelCorpID_0Corel-Layer"/>
  <circle class="fil0" cx="5305.59" cy="5305.59" r="5305.59"/>
  <path class="fil1" d="M4740.85 5929.93c-56.3,-56.3 -26.97,-40.46 -162.73,-76.75 -61.56,-16.54 -115.7,-48.23 -164.68,-86.28l-293.82 720.44c-28.42,69.78 24.66,145.53 99.91,142.67l341.25 -12.98 234.72 247.9c51.84,54.69 142.78,37.65 171.2,-32.13l337.09 -826.52c-70.18,39.1 -148.14,62.06 -228.7,62.06 -126.28,0 -244.94,-49.18 -334.23,-138.41l0 0zm1850.21 557.41l-293.82 -720.44c-48.98,38.1 -103.12,69.73 -164.73,86.28 -136.46,36.5 -106.53,20.6 -162.68,76.75 -89.28,89.23 -208.05,138.41 -334.33,138.41 -80.56,0 -158.47,-23.01 -228.65,-62.06l337.09 826.52c28.42,69.78 119.41,86.83 171.15,32.13l234.82 -247.9 341.25 12.98c75.25,2.86 128.34,-72.99 99.91,-142.67l0 0zm-775.89 -704c98.96,-100.71 110.29,-92.04 251.21,-130.44 89.99,-24.51 160.32,-96.1 184.38,-187.69 48.48,-183.93 35.89,-161.72 168.09,-296.28 65.87,-67.03 91.59,-164.78 67.48,-256.37 -48.38,-183.78 -48.43,-158.12 0,-342.15 24.11,-91.54 -1.6,-189.3 -67.48,-256.32 -132.2,-134.6 -119.61,-112.45 -168.09,-296.33 -24.06,-91.54 -94.4,-163.13 -184.38,-187.69 -180.57,-49.28 -158.77,-36.4 -291.11,-171.05 -65.87,-67.03 -161.93,-93.24 -251.86,-68.68 -180.52,49.23 -155.31,49.28 -336.13,0 -89.94,-24.56 -185.99,1.6 -251.86,68.68 -132.2,134.6 -110.44,121.77 -291.06,171.05 -89.99,24.56 -160.32,96.15 -184.38,187.69 -48.38,183.88 -35.89,161.72 -168.09,296.33 -65.87,67.03 -91.64,164.78 -67.48,256.32 48.38,183.68 48.48,158.02 0,342.1 -24.06,91.59 1.6,189.3 67.48,256.42 132.2,134.55 119.61,112.35 168.09,296.28 24.06,91.59 94.4,163.18 184.38,187.69 144.93,39.5 155.76,33.29 251.16,130.44 85.68,87.23 219.18,102.87 322.15,37.7 41.16,-26.17 88.93,-40.01 137.71,-40.01 48.78,0 96.55,13.84 137.71,40.01 102.92,65.17 236.42,49.53 322.1,-37.7zm-1070.81 -1062.39c0,-343.45 273.57,-621.88 610.95,-621.88 337.44,0 611,278.43 611,621.88 0,343.45 -273.57,621.88 -611,621.88 -337.39,0 -610.95,-278.43 -610.95,-621.88l0 0z"/>
 </g>
</svg>
